<svg xmlns="http://www.w3.org/2000/svg" width="390.272" height="51.674" viewBox="0 0 390.272 51.674">
  <g id="Group_45" data-name="Group 45" transform="translate(-166.728 -23)">
    <text id="Informatics_Analytics" data-name="Informatics + Analytics" transform="translate(308 43)" fill="#13496d" font-size="24" font-family="Helvetica" letter-spacing="-0.01em"><tspan x="0" y="18">Informatics + Analytics</tspan></text>
    <g id="Group_15" data-name="Group 15" transform="translate(154.586 8.377)">
      <rect id="Rectangle_28" data-name="Rectangle 28" width="5.892" height="49.979" transform="translate(22.518 16.129)" fill="#00bdff"/>
      <path id="Path_31" data-name="Path 31" d="M124.125,66.3c5.115-11.4,21.538-47.985,21.722-48.381l.083-.175-.057-.185a5.348,5.348,0,0,0-1.468-2.212,3.069,3.069,0,0,0-1.9-.718,3.124,3.124,0,0,0-2.737,1.459,3.205,3.205,0,0,0-.209.391L117.429,66.3Z" transform="translate(-35.082)" fill="#00bdff"/>
      <path id="Path_32" data-name="Path 32" d="M190.4,75.734,172.144,42.945l-2.932,6.529,14.556,26.26Z" transform="translate(-52.336 -9.437)" fill="#00bdff"/>
      <rect id="Rectangle_29" data-name="Rectangle 29" width="5.891" height="49.979" transform="translate(12.142 16.129)" fill="#13496d"/>
      <rect id="Rectangle_30" data-name="Rectangle 30" width="5.892" height="49.979" transform="translate(32.882 16.129)" fill="#13496d"/>
      <path id="Path_54" data-name="Path 54" d="M107.1,66.3c5.1-11.374,21.474-47.842,21.729-48.381l.083-.175-.057-.185a5.348,5.348,0,0,0-1.468-2.212,3.069,3.069,0,0,0-1.9-.718,3.13,3.13,0,0,0-2.946,1.85L100.4,66.3Z" transform="translate(-29.408)" fill="#13496d"/>
      <path id="Path_55" data-name="Path 55" d="M141.187,66.3l18.6-41.557L182.89,66.3h7.167l-27.827-50.06a3.175,3.175,0,0,0-2.714-1.612h-.025a3.188,3.188,0,0,0-2.649,1.459,3.023,3.023,0,0,0-.209.389L134.327,66.3Z" transform="translate(-40.713 -0.001)" fill="#13496d"/>
      <path id="Path_56" data-name="Path 56" d="M176.814,81.262l-12.14-21.728L161.7,66.161l8.451,15.1Z" transform="translate(-49.833 -14.964)" fill="#13496d"/>
      <path id="Path_57" data-name="Path 57" d="M86.95,53.411H77.4V43.857c0-1.382-1.027-1.308-2.747-1.308S71.9,42.475,71.9,43.857v9.554H62.349c-1.382,0-1.308,1.027-1.308,2.747S60.967,58.9,62.349,58.9H71.9v9.555c0,1.382,1.026,1.308,2.746,1.308s2.747.074,2.747-1.308V58.9H86.95c1.382,0,1.308-1.026,1.308-2.746S88.332,53.411,86.95,53.411Z" transform="translate(-16.293 -9.305)" fill="#13496d"/>
    </g>
  </g>
</svg>
