<svg xmlns="http://www.w3.org/2000/svg" xmlns:xlink="http://www.w3.org/1999/xlink" width="613" height="83" viewBox="0 0 613 83">
  <defs>
    <clipPath id="clip-logo">
      <rect width="613" height="83"/>
    </clipPath>
  </defs>
  <g id="logo" clip-path="url(#clip-logo)">
    <rect width="613" height="83" fill="#fff"/>
    <g id="Group_45" data-name="Group 45" transform="translate(-74.728 -34)">
      <text id="Informatics_Analytics" data-name="Informatics + Analytics" transform="translate(302.396 95.231)" fill="#13496d" font-size="38" font-family="Helvetica" letter-spacing="-0.01em"><tspan x="0" y="0">Informatics + Analytics</tspan></text>
      <g id="Group_15" data-name="Group 15" transform="translate(74.728 34)">
        <rect id="Rectangle_28" data-name="Rectangle 28" width="9.495" height="80.544" transform="translate(16.721 2.426)" fill="#00bdff"/>
        <path id="Path_31" data-name="Path 31" d="M128.22,97.9c8.243-18.365,34.709-77.331,35.007-77.969l.133-.282-.092-.3a8.619,8.619,0,0,0-2.366-3.565,4.946,4.946,0,0,0-3.066-1.157,5.035,5.035,0,0,0-4.41,2.351,5.164,5.164,0,0,0-.337.63L117.429,97.9Z" transform="translate(-4.289 -14.623)" fill="#00bdff"/>
        <path id="Path_32" data-name="Path 32" d="M203.355,95.786,173.937,42.945l-4.725,10.522,23.457,42.319Z" transform="translate(-0.427 -12.511)" fill="#00bdff"/>
        <rect id="Rectangle_29" data-name="Rectangle 29" width="9.494" height="80.544" transform="translate(0 2.426)" fill="#13496d"/>
        <rect id="Rectangle_30" data-name="Rectangle 30" width="9.495" height="80.544" transform="translate(33.424 2.426)" fill="#13496d"/>
        <path id="Path_54" data-name="Path 54" d="M111.19,97.9C119.417,79.57,145.8,20.8,146.207,19.93l.133-.283-.092-.3a8.618,8.618,0,0,0-2.366-3.565,4.946,4.946,0,0,0-3.066-1.157,5.045,5.045,0,0,0-4.747,2.981L100.4,97.9Z" transform="translate(-5.559 -14.623)" fill="#13496d"/>
        <path id="Path_55" data-name="Path 55" d="M145.382,97.9,175.35,30.927,212.589,97.9h11.55L179.293,17.223a5.116,5.116,0,0,0-4.374-2.6h-.04a5.137,5.137,0,0,0-4.269,2.351,4.874,4.874,0,0,0-.336.628L134.327,97.9Z" transform="translate(-3.029 -14.623)" fill="#13496d"/>
        <path id="Path_56" data-name="Path 56" d="M186.058,94.549,166.493,59.534c-1.594,3.55-3.207,7.144-4.795,10.68l13.619,24.335Z" transform="translate(-0.988 -11.274)" fill="#13496d"/>
        <path id="Path_57" data-name="Path 57" d="M102.795,60.054H87.4v-15.4c0-2.228-1.655-2.108-4.426-2.108s-4.425-.119-4.425,2.108v15.4h-15.4c-2.227,0-2.108,1.655-2.108,4.426s-.118,4.425,2.108,4.425h15.4V84.3c0,2.228,1.654,2.108,4.425,2.108S87.4,86.531,87.4,84.3v-15.4h15.4c2.228,0,2.108-1.654,2.108-4.425S105.023,60.054,102.795,60.054Z" transform="translate(-8.495 -12.541)" fill="#13496d"/>
      </g>
    </g>
  </g>
</svg>
