<?xml version="1.0" encoding="utf-8"?>
<!-- Generator: Adobe Illustrator 23.1.1, SVG Export Plug-In . SVG Version: 6.00 Build 0)  -->
<svg version="1.1" id="Layer_1" xmlns="http://www.w3.org/2000/svg" xmlns:xlink="http://www.w3.org/1999/xlink" x="0px" y="0px"
	 viewBox="0 0 305 41.2" style="enable-background:new 0 0 305 41.2;" xml:space="preserve">
<style type="text/css">
	.st0{fill:#13496D;}
	.st1{font-family:'Helvetica';}
	.st2{font-size:19px;}
	.st3{fill:#00BDFF;}
</style>
<g id="Group_71" transform="translate(-74.728 -34)">
	<text transform="matrix(1 0 0 1 185.586 63.768)" class="st0 st1 st2">Informatics + Analytics</text>
	<g id="Group_15" transform="translate(74.728 34)">
		<rect id="Rectangle_28" x="8.3" y="1.2" class="st3" width="4.7" height="39.9"/>
		<path id="Path_31" class="st3" d="M61.3,41.2c4.1-9.1,17.2-38.3,17.3-38.6l0.1-0.1l0-0.1c-0.2-0.7-0.6-1.3-1.2-1.8
			C77.1,0.2,76.5,0,76,0c-0.9,0-1.7,0.4-2.2,1.2c-0.1,0.1-0.1,0.2-0.2,0.3L56,41.2H61.3z"/>
		<path id="Path_32" class="st3" d="M100.4,41.2L85.9,15.1l-2.3,5.2l11.6,20.9H100.4z"/>
		<rect id="Rectangle_29" y="1.2" class="st0" width="4.7" height="39.9"/>
		<rect id="Rectangle_30" x="16.5" y="1.2" class="st0" width="4.7" height="39.9"/>
		<path id="Path_54" class="st0" d="M52.3,41.2c4.1-9.1,17.1-38.2,17.3-38.6l0.1-0.1l0-0.1c-0.2-0.7-0.6-1.3-1.2-1.8
			C68,0.2,67.5,0,66.9,0c-1,0-1.9,0.6-2.3,1.5L46.9,41.2H52.3z"/>
		<path id="Path_55" class="st0" d="M70.4,41.2L85.3,8.1l18.4,33.1h5.7L87.2,1.3C86.8,0.5,86,0,85.1,0h0c-0.9,0-1.6,0.4-2.1,1.2
			c-0.1,0.1-0.1,0.2-0.2,0.3L65,41.2H70.4z"/>
		<path id="Path_56" class="st0" d="M91.6,41.2l-9.7-17.3l-2.4,5.3l6.7,12L91.6,41.2z"/>
		<path id="Path_57" class="st0" d="M46.7,23.5H39v-7.6c0-1.1-0.8-1-2.2-1s-2.2-0.1-2.2,1v7.6H27c-1.1,0-1,0.8-1,2.2s-0.1,2.2,1,2.2
			h7.6v7.6c0,1.1,0.8,1,2.2,1s2.2,0.1,2.2-1v-7.6h7.6c1.1,0,1-0.8,1-2.2S47.8,23.5,46.7,23.5z"/>
	</g>
</g>
</svg>
