<?xml version="1.0" encoding="utf-8"?>
<!-- Generator: Adobe Illustrator 23.1.1, SVG Export Plug-In . SVG Version: 6.00 Build 0)  -->
<svg version="1.1" id="outside_line" xmlns="http://www.w3.org/2000/svg" xmlns:xlink="http://www.w3.org/1999/xlink" x="0px"
	 y="0px" viewBox="0 0 559 73" style="enable-background:new 0 0 559 73;" xml:space="preserve">
<style type="text/css">
	.st0{fill:#1AC3F5;}
	.st1{fill:#13496D;}
</style>
<title>logo-main</title>
<g id="Group_71">
	<g id="Group_15">
		<rect id="Rectangle_28" x="14.7" y="2.1" class="st0" width="8.3" height="70.6"/>
		<path id="Path_31" class="st0" d="M108.7,73c7.2-16.1,30.4-67.8,30.7-68.4l0.1-0.2l-0.1-0.3c-0.4-1.2-1.1-2.3-2.1-3.1
			c-0.8-0.6-1.7-1-2.7-1c-1.6,0-3,0.7-3.9,2.1c-0.1,0.2-0.2,0.4-0.3,0.6L99.2,73H108.7z"/>
		<path id="Path_32" class="st0" d="M178,73l-25.8-46.3l-4.1,9.2L168.6,73L178,73z"/>
		<rect id="Rectangle_29" y="2.1" class="st1" width="8.3" height="70.6"/>
		<rect id="Rectangle_30" x="29.3" y="2.1" class="st1" width="8.3" height="70.6"/>
		<path id="Path_54" class="st1" d="M92.7,73C99.9,57,123,5.4,123.4,4.7l0.1-0.2l-0.1-0.3c-0.4-1.2-1.1-2.3-2.1-3.1
			c-1.9-1.6-4.7-1.3-6.2,0.6c-0.3,0.3-0.5,0.7-0.6,1L83.2,73H92.7z"/>
		<path id="Path_55" class="st1" d="M124.9,73l26.3-58.7L183.8,73h10.1L154.6,2.3c-0.8-1.4-2.2-2.2-3.8-2.3l0,0
			c-1.5,0-2.9,0.8-3.8,2.1c-0.1,0.2-0.2,0.4-0.3,0.6L115.2,73H124.9z"/>
		<path id="Path_56" class="st1" d="M162.3,73l-17.2-30.7l-4.2,9.4L152.9,73H162.3z"/>
		<path id="Path_57" class="st1" d="M82.7,41.7H69.2V28.2c0-2-1.4-1.8-3.9-1.8s-3.9-0.1-3.9,1.8v13.5H47.9c-2,0-1.8,1.5-1.8,3.9
			s-0.1,3.9,1.8,3.9h13.5v13.5c0,1.9,1.4,1.8,3.9,1.8s3.9,0.2,3.9-1.8V49.4h13.5c2,0,1.8-1.5,1.8-3.9S84.7,41.7,82.7,41.7z"/>
	</g>
</g>
<rect x="198.2" y="28.2" class="st1" width="3.1" height="24.8"/>
<path class="st1" d="M214.2,33.9c-1.8,0.1-3.4,0.8-4.8,1.9l-1,0.7l-0.5-2h-2.5V53h3.1V39.2l1.7-1.1c1.2-0.9,2.6-1.5,4.1-1.5
	c1.8,0,3.6,0.5,3.6,4.6V53h3.1V41.1C220.9,36.4,218.5,33.9,214.2,33.9z"/>
<path class="st1" d="M232.6,29.1c0.6,0,1.2,0,1.8,0.2h0.2c0.4,0.1,0.9,0.2,1.5,0.3h0.2l0.6-2.8h-0.3l-1-0.2c-1-0.2-2-0.3-3.1-0.3
	c-4.1,0-6.6,2.4-6.6,6.4v1.7h-2.8v2.8h3c-0.1,0.4-0.2,0.8-0.2,1.2V53h3.1V37.2h5.6l0.7-2.8h-6.3v-1.7
	C229.1,29.7,231,29.1,232.6,29.1z"/>
<path class="st1" d="M244.6,33.9c-5.7,0-8.3,3.1-8.3,9.8s2.6,9.9,8.3,9.9c5.7,0,8.4-3.1,8.4-9.8C252.9,37,250.3,33.9,244.6,33.9z
	 M249.7,43.7c0,5.3-1.4,7.2-5.2,7.2s-5.1-1.9-5.1-7.2s1.4-7.1,5.2-7.1S249.7,38.4,249.7,43.7L249.7,43.7z"/>
<path class="st1" d="M264,33.9c-1.3,0-2.5,0.4-3.5,1.2l-1.2,1l-0.4-1.7h-2.6V53h3.1V39.2l1-0.8c1-1,2.3-1.5,3.7-1.4
	c0.5,0,1,0,1.5,0.1l0.3,0.1v-3.1l-0.2-0.1C265.1,33.9,264.6,33.9,264,33.9z"/>
<path class="st1" d="M288,33.9c-2.3,0-3.5,0.8-5.2,2l-1,0.7c-1-1.8-2.9-2.9-5-2.7c-1.5,0-2.8,0.8-4.5,1.9l-1,0.6l-0.5-2h-2.6V53h3.1
	V39.2l1.5-1c1.1-1,2.4-1.5,3.9-1.6c1.9,0,2.8,1.5,2.8,4.7V53h3.1V41.2c0-0.7,0-1.4-0.1-2.1l1.1-0.8c1.9-1.3,3.1-1.8,4.3-1.8
	c1.9,0,2.7,1.4,2.7,4.7V53h3.1V41.2C293.8,36.2,292,33.9,288,33.9z"/>
<path class="st1" d="M305.6,33.9c-2.1,0-5.8,0.4-7.5,3.1l-0.1,0.2l2.5,1.5l0.1-0.2c0.9-1.3,2.5-2,5-2c2.3,0,3.7,0.5,3.7,2.8V42
	c-1.7-0.5-3.4-0.7-5.2-0.7c-4.7,0-7.2,2-7.2,5.9c0,3.9,2.3,6.2,6.4,6.2c2.2,0.1,4.4-0.6,6.2-2l0.4,1.4h2.5V39.5
	C312.4,34.5,308.5,33.9,305.6,33.9z M309.3,44.6v4.3c-1.7,1.3-3.8,2-6,2c-2.1,0-3.2-1.2-3.2-3.6s1.4-3.3,4.4-3.3
	c1.3,0,2.7,0.2,4,0.4L309.3,44.6z"/>
<path class="st1" d="M326.5,49.9c-0.8,0.6-1.8,0.9-2.8,1c-2,0-2.7-0.7-2.7-2.6V37.2h5.7l0.9-2.8H321v-7l-3.1,0.9v6.1h-3.1v2.8h3.3
	c-0.1,0.3-0.2,0.7-0.2,1.1v10c0,3.5,1.6,5.2,5,5.2c1.1,0,3.9-0.2,5.5-1.5l0.2-0.2l-2-2L326.5,49.9z"/>
<rect x="330.9" y="34.4" class="st1" width="3.1" height="18.6"/>
<path class="st1" d="M333.8,26.3h-2.7c-0.5,0-0.5,0.4-0.5,0.6v2.6c0,0.3,0,0.5,0.5,0.5h2.7c0.4,0,0.5-0.2,0.5-0.5v-2.6
	C334.3,26.6,334.3,26.3,333.8,26.3z"/>
<path class="st1" d="M350.8,48.6c-0.9,1.6-2.6,2.4-4.4,2.3c-3.6,0-5.5-1.1-5.5-7.1s2-7.2,5.5-7.2c1-0.1,2,0.2,2.9,0.7
	c0.5,0.3,0.9,0.8,1.2,1.3l0.2,0.3l2.6-1.3l-0.2-0.2c-1.4-2.3-4-3.6-6.8-3.5c-6,0-8.7,3-8.7,9.8s2.7,9.8,8.7,9.8
	c2.8,0.1,5.4-1.2,6.9-3.6l0.2-0.2l-2.5-1.3L350.8,48.6z"/>
<path class="st1" d="M365.4,42.2l-4.5-0.7c-1.7-0.3-2-1-2-2.1c0-2.4,2.2-2.9,4.1-2.9c2.5,0,3.4,1,4,1.9l0.1,0.2l2.6-1.3l-0.1-0.2
	c-1.2-2.1-3.4-3.2-6.6-3.2c-4.5,0-7.1,2.1-7.1,5.6c0,2.7,1.5,4.5,4.4,4.9l4.5,0.7c1.5,0.2,2.3,1,2.3,2.4c0,2.3-1.4,3.3-4.4,3.3
	c-2.1,0-3.7-0.9-4.3-2.5l-0.1-0.2l-2.9,0.9l0.1,0.2c0.9,2.6,3.7,4.2,7.2,4.2c4.8,0,7.6-2.2,7.6-6C370.2,44.7,368.4,42.7,365.4,42.2z
	"/>
<polygon class="st1" points="391.2,30.9 388.1,30.9 388.1,39.1 379.9,39.1 379.9,42.2 388.1,42.2 388.1,50.4 391.2,50.4 391.2,42.2 
	399.4,42.2 399.4,39.1 391.2,39.1 "/>
<path class="st1" d="M416.8,28.2L407.7,53h3.2l2.8-7.5h9.6l2.8,7.5h3.3l-9.1-24.8H416.8z M418.5,32.2c0.2,0.6,0.3,1.1,0.5,1.5
	l3.2,8.9h-7.5l3.3-8.8C418.2,33.3,418.4,32.8,418.5,32.2L418.5,32.2z"/>
<path class="st1" d="M440.7,33.9c-1.7,0.1-3.4,0.8-4.8,1.9l-1,0.7l-0.5-2h-2.6V53h3.1V39.2l1.7-1.1c1.6-1.1,2.6-1.5,4.1-1.5
	c1.8,0,3.6,0.5,3.6,4.6V53h3.2V41.1C447.4,36.4,445,33.9,440.7,33.9z"/>
<path class="st1" d="M459.1,33.9c-2.1,0-5.9,0.4-7.5,3.1l-0.1,0.2l2.5,1.5l0.1-0.2c0.9-1.3,2.5-2,5-2c2.3,0,3.7,0.5,3.7,2.8V42
	c-1.7-0.5-3.4-0.7-5.2-0.7c-4.7,0-7.2,2-7.2,5.9c0,3.9,2.3,6.2,6.4,6.2c2.2,0.1,4.4-0.6,6.2-2l0.4,1.4h2.5V39.5
	C465.9,34.5,462,33.9,459.1,33.9z M462.8,44.6v4.3c-1.7,1.3-3.8,2-6,2c-2.1,0-3.2-1.2-3.2-3.6s1.4-3.3,4.4-3.3c1.3,0,2.7,0.2,4,0.4
	L462.8,44.6z"/>
<path class="st1" d="M473.1,48.7V26.3h-3.1v22.4c0,3.1,1.5,4.6,4.3,4.6h1.6v-2.9h-1.5C473.5,50.5,473.1,50.2,473.1,48.7z"/>
<path class="st1" d="M485.5,47.9c-0.2,0.4-0.3,0.9-0.4,1.3c-0.1-0.5-0.2-0.9-0.4-1.3l-5-13.3l-0.1-0.2h-3.3l7.1,18.8l-1.1,3.1
	c-0.6,1.6-0.9,2-2.9,2h-2.6v2.9h2.6c3.2,0,4.7-1,5.7-3.6l8.5-22.8l0.1-0.3h-3.3L485.5,47.9z"/>
<path class="st1" d="M506.6,49.9c-0.8,0.6-1.8,1-2.8,1c-2,0-2.7-0.7-2.7-2.6V37.2h5.7l0.9-2.8h-6.6v-7l-3.1,0.9v6.1h-3.1v2.8h3.3
	c-0.1,0.4-0.2,0.7-0.2,1.1v10c0,3.5,1.6,5.2,5,5.2c1.1,0,3.9-0.2,5.5-1.5l0.2-0.2l-2-2L506.6,49.9z"/>
<path class="st1" d="M513.6,26.3h-2.7c-0.5,0-0.5,0.4-0.5,0.6v2.6c0,0.3,0,0.5,0.5,0.5h2.7c0.4,0,0.5-0.2,0.5-0.5v-2.6
	C514.1,26.6,514.1,26.3,513.6,26.3z"/>
<rect x="510.7" y="34.4" class="st1" width="3.1" height="18.6"/>
<path class="st1" d="M530.2,48.6c-0.9,1.6-2.6,2.4-4.4,2.3c-3.6,0-5.5-1.1-5.5-7.1s2-7.2,5.5-7.2c1-0.1,2,0.2,2.9,0.7
	c0.5,0.4,0.9,0.8,1.2,1.3l0.2,0.3l2.6-1.3l-0.2-0.2c-1.4-2.3-4-3.6-6.8-3.5c-6,0-8.7,3-8.7,9.8s2.7,9.8,8.7,9.8
	c2.8,0.1,5.4-1.2,6.9-3.6l0.2-0.2l-2.5-1.3L530.2,48.6z"/>
<path class="st1" d="M544.9,42.2l-4.4-0.7c-1.7-0.3-2-1-2-2.1c0-2.4,2.2-2.9,4.1-2.9c2.5,0,3.4,1,4,1.9l0.1,0.2l2.6-1.3l-0.1-0.2
	c-1.2-2.1-3.4-3.2-6.7-3.2c-4.5,0-7.1,2.1-7.1,5.6c0,2.7,1.6,4.5,4.4,4.9l4.5,0.7c1.5,0.2,2.3,1,2.3,2.4c0,2.3-1.4,3.3-4.4,3.3
	c-2.1,0-3.7-0.9-4.3-2.5l-0.1-0.2l-2.9,0.9l0.1,0.2c0.9,2.6,3.7,4.2,7.2,4.2c4.8,0,7.6-2.2,7.6-6C549.7,44.7,547.8,42.7,544.9,42.2z
	"/>
</svg>
