<svg xmlns="http://www.w3.org/2000/svg" width="182" height="10" viewBox="0 0 182 10">
  <g id="Group_45" data-name="Group 45" transform="translate(-141 -1511)">
    <rect id="Rectangle_73" data-name="Rectangle 73" width="2" height="10" transform="translate(141 1511)" fill="#e5cf6a"/>
    <rect id="Rectangle_73-2" data-name="Rectangle 73" width="2" height="10" transform="translate(148 1511)" fill="#e5cf6a"/>
    <rect id="Rectangle_73-3" data-name="Rectangle 73" width="2" height="10" transform="translate(155 1511)" fill="#e5cf6a"/>
    <rect id="Rectangle_73-4" data-name="Rectangle 73" width="2" height="10" transform="translate(162 1511)" fill="#e5cf6a"/>
    <rect id="Rectangle_73-5" data-name="Rectangle 73" width="2" height="10" transform="translate(169 1511)" fill="#e5cf6a"/>
    <rect id="Rectangle_73-6" data-name="Rectangle 73" width="2" height="10" transform="translate(176 1511)" fill="#e5cf6a"/>
    <rect id="Rectangle_73-7" data-name="Rectangle 73" width="2" height="10" transform="translate(183 1511)" fill="#e5cf6a"/>
    <rect id="Rectangle_73-8" data-name="Rectangle 73" width="2" height="10" transform="translate(190 1511)" fill="#e5cf6a"/>
    <rect id="Rectangle_73-9" data-name="Rectangle 73" width="2" height="10" transform="translate(197 1511)" fill="#e5cf6a"/>
    <rect id="Rectangle_73-10" data-name="Rectangle 73" width="2" height="10" transform="translate(204 1511)" fill="#e5cf6a"/>
    <rect id="Rectangle_73-11" data-name="Rectangle 73" width="2" height="10" transform="translate(211 1511)" fill="#e5cf6a"/>
    <rect id="Rectangle_73-12" data-name="Rectangle 73" width="2" height="10" transform="translate(218 1511)" fill="#e5cf6a"/>
    <rect id="Rectangle_73-13" data-name="Rectangle 73" width="2" height="10" transform="translate(225 1511)" fill="#e5cf6a"/>
    <rect id="Rectangle_73-14" data-name="Rectangle 73" width="2" height="10" transform="translate(232 1511)" fill="#e5cf6a"/>
    <rect id="Rectangle_73-15" data-name="Rectangle 73" width="2" height="10" transform="translate(239 1511)" fill="#e5cf6a"/>
    <rect id="Rectangle_73-16" data-name="Rectangle 73" width="2" height="10" transform="translate(246 1511)" fill="#e5cf6a"/>
    <rect id="Rectangle_73-17" data-name="Rectangle 73" width="2" height="10" transform="translate(253 1511)" fill="#e5cf6a"/>
    <rect id="Rectangle_73-18" data-name="Rectangle 73" width="2" height="10" transform="translate(260 1511)" fill="#e5cf6a"/>
    <rect id="Rectangle_73-19" data-name="Rectangle 73" width="2" height="10" transform="translate(267 1511)" fill="#e5cf6a"/>
    <rect id="Rectangle_73-20" data-name="Rectangle 73" width="2" height="10" transform="translate(274 1511)" fill="#e5cf6a"/>
    <rect id="Rectangle_73-21" data-name="Rectangle 73" width="2" height="10" transform="translate(281 1511)" fill="#e5cf6a"/>
    <rect id="Rectangle_73-22" data-name="Rectangle 73" width="2" height="10" transform="translate(288 1511)" fill="#e5cf6a"/>
    <rect id="Rectangle_73-23" data-name="Rectangle 73" width="2" height="10" transform="translate(295 1511)" fill="#e5cf6a"/>
    <rect id="Rectangle_73-24" data-name="Rectangle 73" width="2" height="10" transform="translate(302 1511)" fill="#e5cf6a"/>
    <rect id="Rectangle_73-25" data-name="Rectangle 73" width="2" height="10" transform="translate(309 1511)" fill="#e5cf6a"/>
    <rect id="Rectangle_73-26" data-name="Rectangle 73" width="2" height="10" transform="translate(316 1511)" fill="#e5cf6a"/>
    <rect id="Rectangle_153" data-name="Rectangle 153" width="5" height="10" transform="translate(318 1511)" fill="#fff"/>
  </g>
</svg>
